<?xml version="1.0" encoding="utf-8"?>
<!-- Generator: Adobe Illustrator 23.0.1, SVG Export Plug-In . SVG Version: 6.00 Build 0)  -->
<!DOCTYPE svg PUBLIC "-//W3C//DTD SVG 1.1//EN" "http://www.w3.org/Graphics/SVG/1.1/DTD/svg11.dtd" [
	<!ENTITY ns_extend "http://ns.adobe.com/Extensibility/1.0/">
	<!ENTITY ns_ai "http://ns.adobe.com/AdobeIllustrator/10.0/">
	<!ENTITY ns_graphs "http://ns.adobe.com/Graphs/1.0/">
	<!ENTITY ns_vars "http://ns.adobe.com/Variables/1.0/">
	<!ENTITY ns_imrep "http://ns.adobe.com/ImageReplacement/1.0/">
	<!ENTITY ns_sfw "http://ns.adobe.com/SaveForWeb/1.0/">
	<!ENTITY ns_custom "http://ns.adobe.com/GenericCustomNamespace/1.0/">
	<!ENTITY ns_adobe_xpath "http://ns.adobe.com/XPath/1.0/">
]>
<svg version="1.1"
	 id="Livello_1" xmlns:x="&ns_extend;" xmlns:i="&ns_ai;" xmlns:graph="&ns_graphs;" xmlns:cc="http://creativecommons.org/ns#" xmlns:dc="http://purl.org/dc/elements/1.1/" xmlns:rdf="http://www.w3.org/1999/02/22-rdf-syntax-ns#"
	 xmlns="http://www.w3.org/2000/svg" xmlns:xlink="http://www.w3.org/1999/xlink" x="0px" y="0px" viewBox="0 0 297.9 500"
	 style="enable-background:new 0 0 297.9 500;" xml:space="preserve">
<style type="text/css">
	.st0{fill:#C8B67F;}
	.st1{fill:#0064AA;}
	.st2{fill:#009C3D;}
	.st3{fill:#FFFFFF;}
	.st4{fill:#E30521;}
</style>
<metadata>
	<sfw  xmlns="&ns_sfw;">
		<slices></slices>
		<sliceSourceBounds  bottomLeftOrigin="true" height="500" width="297.9" x="2291.5" y="3846"></sliceSourceBounds>
	</sfw>
</metadata>
<g>
	<polygon class="st0" points="109.6,1.6 102.2,15.8 100.8,16 93.5,17.1 84.6,18.4 84,18.5 84.6,19.1 93.6,27.7 97.3,31.3 94.2,49.4 
		100.9,45.8 109.8,41.1 110.4,40.8 110.4,40.8 117.1,44.2 126,48.9 126.8,49.3 125.9,44.6 123.6,31.2 125.9,28.9 133.1,21.8 
		136.7,18.2 133.1,17.7 125.8,16.7 118.5,15.7 116.9,12.6 110.3,0.4 110.2,0.3 	"/>
	<polygon class="st0" points="184.3,1.3 176.9,15.4 175.5,15.7 168.2,16.7 159.3,18.1 158.7,18.2 159.3,18.8 168.2,27.4 172,30.9 
		168.9,49.1 175.6,45.5 184.5,40.8 185.1,40.5 185.1,40.5 191.8,43.9 200.7,48.5 201.5,48.9 200.7,44.3 198.3,30.8 200.6,28.6 
		207.8,21.4 211.4,17.9 207.8,17.4 200.5,16.4 193.2,15.4 191.6,12.3 185,0 184.9,0 	"/>
	<polygon class="st0" points="39.8,17.6 32.4,32.8 31,33 23.7,34.1 14.8,35.4 14.2,35.5 14.8,36.1 23.7,44.7 27.4,48.3 24.4,66.4 
		31.1,62.9 40,58.1 40.6,57.8 40.6,57.8 47.2,61.2 56.2,65.9 57,66.3 56.1,61.6 53.8,48.2 56.1,45.9 63.3,38.8 66.9,35.3 63.3,34.8 
		56,33.7 48.7,32.7 47.1,29.6 40.5,16.3 40.4,16.2 	"/>
	<polygon class="st0" points="254.2,16.6 246.9,31.8 245.4,32.1 238.1,33.1 229.3,34.5 228.7,34.6 229.3,35.1 238.2,43.8 
		241.9,47.3 238.9,65.5 245.5,61.9 254.4,57.2 255.1,56.9 255.1,56.9 261.7,60.3 270.6,64.9 271.4,65.3 270.6,60.7 268.2,47.2 
		270.5,45 277.8,37.8 281.3,34.3 277.7,33.8 270.5,32.8 263.1,31.8 261.6,28.7 254.9,15.4 254.9,15.3 	"/>
	<g>
		<path class="st1" d="M149.7,489.7C273,440.6,288.6,374.5,288.3,322.3c0.3-14-1.4-151.5-4-218c-59.4-2.2-108.7-16.9-136.4-30.7
			c-29.8,15.2-80.2,31.2-136.1,32.1c-2,66.5-2.5,203.7-2.1,217.7C9.9,375.7,26.1,441.7,149.7,489.7"/>
		<path class="st0" d="M293.7,99.5l-0.2-4.5l-4.5-0.1c-61.4-1.6-112-17-138.9-30.9l-2.2-1.1l-2.2,1.2C116.6,79.4,65.3,95.9,8.4,96.2
			l-5.8,0l-0.2,4.6c-2.2,64.6-2.7,208.6-2.3,222.7C0.5,406,46.1,460.2,148,499.3l1.7,0.7l1.7-0.7c101.6-40,146.7-94.6,146.4-176.9
			C298.2,308.1,296.4,164.1,293.7,99.5 M11.8,105.7c55.9-0.9,106.3-16.8,136.1-32.1c27.6,13.7,77,28.5,136.4,30.7
			c2.6,66.5,4.3,203.9,4,218c0.3,52.2-15.3,118.3-138.6,167.4C26.1,441.7,9.9,375.7,9.7,323.4C9.3,309.5,9.8,172.3,11.8,105.7"/>
		<g>
			<path class="st2" d="M93.4,215.6c0-2.1,0.1-4.2,0.3-6.3c-19.9,2.6-39.7,6.5-59.3,11.8c-0.2,34.8-0.2,67.8-0.1,102.6
				c0.2,32.8,8,57.8,24.4,79c12,15.5,29.1,29.7,51.6,42.5l-0.8-189.5C99.6,245.3,93.5,231.2,93.4,215.6"/>
			<path class="st3" d="M148.8,272.4c-15.3,0.1-29.2-6.4-39.3-16.8l0.8,189.5c11.6,6.6,24.7,12.9,39.3,18.7
				c14.5-5.9,27.5-12.3,39.1-19l-0.8-189.5C177.9,265.8,164.1,272.3,148.8,272.4"/>
			<path class="st4" d="M203.7,215.1c0.1,15.7-6,29.9-15.8,40.2l0.8,189.5c22.4-13,39.4-27.3,51.2-42.9
				c16.2-21.3,23.8-46.4,23.7-79.2c-0.1-34.8-0.4-67.8-0.9-102.6c-19.6-5.1-39.5-8.8-59.3-11.2C203.6,210.8,203.7,212.9,203.7,215.1
				"/>
		</g>
		<g>
			<path class="st0" d="M198.3,190.6c21.5,2.1,42.9,5.7,64.1,10.8c0-3.3-0.1-6.6-0.2-9.9c-23.1-5.4-46.5-9.1-70-11.1
				C194.6,183.6,196.6,187,198.3,190.6"/>
			<path class="st0" d="M98.6,191.1c1.6-3.6,3.6-7.1,5.9-10.2c-23.4,2.2-46.7,6.2-69.8,11.8c0,3.3,0,6.6-0.1,9.9
				C55.7,197.3,77.1,193.5,98.6,191.1"/>
			<g>
				<path class="st0" d="M136.8,259.3c3.9,1.4,8.3,2.1,12.8,2.1c7.7,0,15.5-2.3,21.8-6.3c8-5.1,12.9-11.4,15.8-16.9
					c-6,7.6-15.2,13.4-25.9,13.4c-6.4,0-12.6-2-18.5-6c-12.4-8.3-20.4-21.6-21.9-36c-5.3,6.6-7.3,15.9-5.4,25.2
					C117.9,246.4,125.6,255.3,136.8,259.3"/>
				<path class="st0" d="M126.1,193.8c7.1-3.9,14.6-5.8,22.3-5.9c6.4,0,12.7,1.3,18.4,4c-3.8-11.2-15.1-19.3-27.6-19.3
					c-7.6,0-14.9,3-21,8.7c-8.7,8-14.1,21.2-13.9,33.8c0.2,9.5,2.8,16.9,5.7,22.3c-2.2-6.4-2.8-13.5-1.5-20.1
					C109.9,210.1,114.1,200.3,126.1,193.8"/>
				<path class="st0" d="M170.7,173.8c-6.8-4-14.3-6-21.8-6c-0.1,0-0.2,0-0.3,0c7.4,1.2,14.4,4.8,19.5,10.1c6.6,6.8,9.8,16,9.3,26.5
					c-0.7,15.5-7.7,29.4-18.9,38c9.1,1.8,19.5-2.3,26.1-10.4c6.4-7.8,8.9-18,6.9-28.8C189.3,191.5,181.2,179.9,170.7,173.8"/>
				<polygon class="st0" points="129.3,221.1 129.3,214.5 135.3,214.5 135.2,211.4 129.3,211.4 129.3,208 136.6,207.9 136.6,204.9 
					126,204.9 126.1,221.1 				"/>
				<polygon class="st0" points="142.7,204.9 139.4,204.9 139.5,221.1 142.7,221 				"/>
				<path class="st0" d="M154.2,204.7l-5.3,0c-1.9,0-3.2,1.3-3.2,3.2l0,10c0,1.9,1.3,3.2,3.2,3.2l5.3,0c1.9,0,3.2-1.3,3.2-3.2l0-5.2
					l-5.3,0l0,2.9l2,0l0,1.6c0,0.5-0.2,0.8-0.8,0.8l-3.7,0c-0.5,0-0.8-0.2-0.8-0.8l0-8.7c0-0.5,0.2-0.8,0.8-0.8l3.7,0
					c0.5,0,0.8,0.2,0.8,0.8v1.5l3.2,0l0-2.1C157.4,206,156.1,204.7,154.2,204.7"/>
				<path class="st0" d="M168.8,204.6l-5.1,0c-1.9,0-3.2,1.3-3.2,3.2l0,10c0,1.9,1.3,3.2,3.2,3.2l5.1,0c1.9,0,3.2-1.3,3.2-3.2l0-2.1
					l-3.2,0l0,1.4c0,0.5-0.2,0.8-0.8,0.8l-3.5,0c-0.5,0-0.8-0.2-0.8-0.8l0-8.7c0-0.5,0.2-0.8,0.8-0.8l3.5,0c0.5,0,0.8,0.2,0.8,0.8
					v1.4l3.2,0l0-2C172,205.9,170.6,204.6,168.8,204.6"/>
			</g>
			<g>
				<path class="st0" d="M35,126.7l-0.2,0.1l0.2,48.1l0.4-0.1c2.9-0.7,5.8-1.4,8.7-2l0.2-0.1l-0.2-48.1l-0.4,0.1
					C40.8,125.3,37.9,125.9,35,126.7"/>
				<path class="st0" d="M60.3,121.2l-0.3,0l0,8.8l0.4-0.1c3.6-0.7,7.3-1.3,11.1-2l0.2,38.9c3.1-0.6,6.3-1.1,9.4-1.6l-0.2-38.8
					c3.8-0.5,7.6-1,11.2-1.5l0.3,0l0-8.8l-0.4,0C81.5,117.5,70.8,119.2,60.3,121.2"/>
				<path class="st0" d="M118.6,161.1l0-9.6c4.4-0.3,8.9-0.6,13.3-0.7l0,9.6c3.2-0.1,6.4-0.2,9.5-0.3l-0.2-38.1
					c0-5.3-3.8-8.9-9.1-8.7c-4.7,0.2-9.5,0.5-14.2,0.8c-5.3,0.4-9,4.4-9,9.7l0.2,38.2C112.3,161.6,115.4,161.3,118.6,161.1
					 M118.4,124.7c0-1.2,0.5-1.8,1.8-1.9c3.2-0.2,6.5-0.4,9.7-0.5h0.2c1.1,0,1.6,0.5,1.6,1.7l0.1,17.9c-4.4,0.2-8.9,0.4-13.3,0.7
					L118.4,124.7z"/>
				<path class="st0" d="M168.7,113.1c-3-0.1-5.9-0.2-8.9-0.2h-0.3l0.2,47.2c9.2,0.2,18.3,0.7,27.5,1.4l0-8.3l-0.3,0
					c-5.9-0.4-11.8-0.8-17.7-1l-0.2-39.1L168.7,113.1z"/>
				<path class="st0" d="M204.4,115.8l-0.4,0l0.2,47.4c3.2,0.4,6.3,0.8,9.5,1.2l-0.2-47.5l-0.3,0
					C210.4,116.5,207.5,116.1,204.4,115.8"/>
				<path class="st0" d="M238.7,120.9c-2.9-0.5-5.5,0.1-7.1,1.9c-1.3,1.4-1.9,3.3-1.9,5.6l0.2,38.7c3.1,0.6,6.3,1.2,9.4,1.8l0-10.3
					c4.4,0.8,8.8,1.7,13.1,2.6l0,10.5c3.1,0.7,6.2,1.5,9.3,2.3l-0.2-39.3c0-5.3-3.7-9.8-8.9-11C248.1,122.7,243.3,121.8,238.7,120.9
					 M252.3,152.2c-4.3-0.9-8.7-1.8-13.1-2.6l-0.1-17.9c0-1.3,0.6-1.4,1.1-1.4c0.2,0,0.4,0,0.6,0.1c3.3,0.6,6.5,1.3,9.6,1.9
					c1.2,0.3,1.8,1,1.8,2.2L252.3,152.2z"/>
			</g>
		</g>
	</g>
</g>
</svg>
